<svg width="108" height="53" viewBox="0 0 108 53" fill="none" xmlns="http://www.w3.org/2000/svg">
<g filter="url(#filter0_d)">
<rect x="4" width="99.8665" height="44.4" rx="20" fill="#4E7099" fill-opacity="0.9"/>
</g>
<path d="M40.7019 24.889C40.7019 25.569 40.5262 26.1413 40.1749 26.606C39.8235 27.0593 39.3475 27.405 38.7469 27.643C38.1575 27.881 37.5115 28 36.8089 28H30.9779V15.93H37.4379C38.0045 15.93 38.4919 16.083 38.8999 16.389C39.3079 16.6837 39.6252 17.069 39.8519 17.545C40.0785 18.021 40.1919 18.5083 40.1919 19.007C40.1919 19.5963 40.0445 20.1517 39.7499 20.673C39.4552 21.183 39.0245 21.5627 38.4579 21.812C39.1492 22.016 39.6932 22.3843 40.0899 22.917C40.4979 23.4497 40.7019 24.107 40.7019 24.889ZM33.3239 17.936V20.979H36.4519C36.8372 20.979 37.1715 20.843 37.4549 20.571C37.7382 20.299 37.8799 19.925 37.8799 19.449C37.8799 18.9957 37.7495 18.633 37.4889 18.361C37.2395 18.0777 36.9279 17.936 36.5539 17.936H33.3239ZM38.3389 24.447C38.3389 24.005 38.2029 23.6253 37.9309 23.308C37.6589 22.9907 37.3245 22.832 36.9279 22.832H33.3239V26.011H36.8089C37.2395 26.011 37.6022 25.858 37.8969 25.552C38.1915 25.246 38.3389 24.8777 38.3389 24.447ZM47.6835 28.085C46.7995 28.085 45.9949 27.915 45.2695 27.575C44.5555 27.235 43.9379 26.776 43.4165 26.198C42.9065 25.6087 42.5099 24.9513 42.2265 24.226C41.9432 23.4893 41.8015 22.7357 41.8015 21.965C41.8015 21.1603 41.9489 20.3953 42.2435 19.67C42.5382 18.9333 42.9519 18.2817 43.4845 17.715C44.0172 17.137 44.6405 16.6837 45.3545 16.355C46.0799 16.015 46.8732 15.845 47.7345 15.845C48.6072 15.845 49.4005 16.0207 50.1145 16.372C50.8399 16.7233 51.4575 17.1937 51.9675 17.783C52.4889 18.3723 52.8855 19.0353 53.1575 19.772C53.4409 20.4973 53.5825 21.2397 53.5825 21.999C53.5825 22.7923 53.4352 23.5573 53.1405 24.294C52.8459 25.0193 52.4322 25.671 51.8995 26.249C51.3782 26.8157 50.7549 27.2633 50.0295 27.592C49.3155 27.9207 48.5335 28.085 47.6835 28.085ZM44.1815 21.965C44.1815 22.6677 44.3175 23.325 44.5895 23.937C44.8729 24.549 45.2752 25.0477 45.7965 25.433C46.3292 25.8183 46.9639 26.011 47.7005 26.011C48.4599 26.011 49.1002 25.8127 49.6215 25.416C50.1429 25.0193 50.5395 24.5093 50.8115 23.886C51.0835 23.2627 51.2195 22.6223 51.2195 21.965C51.2195 21.2623 51.0779 20.605 50.7945 19.993C50.5112 19.381 50.1032 18.888 49.5705 18.514C49.0492 18.1287 48.4259 17.936 47.7005 17.936C46.9412 17.936 46.3009 18.1343 45.7795 18.531C45.2582 18.9277 44.8615 19.4377 44.5895 20.061C44.3175 20.673 44.1815 21.3077 44.1815 21.965ZM60.5332 28.085C59.6492 28.085 58.8445 27.915 58.1192 27.575C57.4052 27.235 56.7875 26.776 56.2662 26.198C55.7562 25.6087 55.3595 24.9513 55.0762 24.226C54.7928 23.4893 54.6512 22.7357 54.6512 21.965C54.6512 21.1603 54.7985 20.3953 55.0932 19.67C55.3878 18.9333 55.8015 18.2817 56.3342 17.715C56.8668 17.137 57.4902 16.6837 58.2042 16.355C58.9295 16.015 59.7228 15.845 60.5842 15.845C61.4568 15.845 62.2502 16.0207 62.9642 16.372C63.6895 16.7233 64.3072 17.1937 64.8172 17.783C65.3385 18.3723 65.7352 19.0353 66.0072 19.772C66.2905 20.4973 66.4322 21.2397 66.4322 21.999C66.4322 22.7923 66.2848 23.5573 65.9902 24.294C65.6955 25.0193 65.2818 25.671 64.7492 26.249C64.2278 26.8157 63.6045 27.2633 62.8792 27.592C62.1652 27.9207 61.3832 28.085 60.5332 28.085ZM57.0312 21.965C57.0312 22.6677 57.1672 23.325 57.4392 23.937C57.7225 24.549 58.1248 25.0477 58.6462 25.433C59.1788 25.8183 59.8135 26.011 60.5502 26.011C61.3095 26.011 61.9498 25.8127 62.4712 25.416C62.9925 25.0193 63.3892 24.5093 63.6612 23.886C63.9332 23.2627 64.0692 22.6223 64.0692 21.965C64.0692 21.2623 63.9275 20.605 63.6442 19.993C63.3608 19.381 62.9528 18.888 62.4202 18.514C61.8988 18.1287 61.2755 17.936 60.5502 17.936C59.7908 17.936 59.1505 18.1343 58.6292 18.531C58.1078 18.9277 57.7112 19.4377 57.4392 20.061C57.1672 20.673 57.0312 21.3077 57.0312 21.965ZM68.2318 28V15.947H70.5778V21.676L75.6438 15.93H78.2278L73.6038 21.285L78.5168 28H75.8648L72.1078 22.798L70.5778 24.396V28H68.2318Z" fill="white"/>
<defs>
<filter id="filter0_d" x="0" y="0" width="107.866" height="52.4" filterUnits="userSpaceOnUse" color-interpolation-filters="sRGB">
<feFlood flood-opacity="0" result="BackgroundImageFix"/>
<feColorMatrix in="SourceAlpha" type="matrix" values="0 0 0 0 0 0 0 0 0 0 0 0 0 0 0 0 0 0 127 0"/>
<feOffset dy="4"/>
<feGaussianBlur stdDeviation="2"/>
<feColorMatrix type="matrix" values="0 0 0 0 0 0 0 0 0 0 0 0 0 0 0 0 0 0 0.25 0"/>
<feBlend mode="normal" in2="BackgroundImageFix" result="effect1_dropShadow"/>
<feBlend mode="normal" in="SourceGraphic" in2="effect1_dropShadow" result="shape"/>
</filter>
</defs>
</svg>
