<svg width="98" height="92" viewBox="0 0 98 92" fill="none" xmlns="http://www.w3.org/2000/svg">
<path d="M84.8028 7.1875H76.0563V2.875C76.0563 1.28728 74.6944 0 73.0141 0C71.3338 0 69.9718 1.28728 69.9718 2.875V7.1875H27.3803V2.875C27.3803 1.28728 26.0183 0 24.338 0C22.6578 0 21.2958 1.28728 21.2958 2.875V7.1875H12.5493C5.6295 7.1875 0 12.5075 0 19.0469V80.1406C0 86.68 5.6295 92 12.5493 92H84.8028C91.7226 92 97.3521 86.68 97.3521 80.1406V19.0469C97.3521 12.5075 91.7226 7.1875 84.8028 7.1875ZM12.5493 12.9375H21.2958V15.8125C21.2958 17.4002 22.6578 18.6875 24.338 18.6875C26.0183 18.6875 27.3803 17.4002 27.3803 15.8125V12.9375H69.9718V15.8125C69.9718 17.4002 71.3338 18.6875 73.0141 18.6875C74.6944 18.6875 76.0563 17.4002 76.0563 15.8125V12.9375H84.8028C88.3676 12.9375 91.2676 15.6781 91.2676 19.0469V25.875H6.08451V19.0469C6.08451 15.6781 8.98454 12.9375 12.5493 12.9375ZM84.8028 86.25H12.5493C8.98454 86.25 6.08451 83.5094 6.08451 80.1406V31.625H91.2676V80.1406C91.2676 83.5094 88.3676 86.25 84.8028 86.25Z" fill="black"/>
<path d="M39.9225 54V42.44L34.7825 51.42H33.9025L28.7425 42.44V54H27.3425V39.8H28.7825L34.3225 49.52L39.9025 39.8H41.3225V54H39.9225ZM49.2816 39.8H50.4616L56.3616 54H54.8816L53.0416 49.56H46.6616L44.8416 54H43.3416L49.2816 39.8ZM52.7216 48.46L49.8616 41.44L46.9616 48.46H52.7216ZM56.8952 39.8L61.5352 47.44L66.2152 39.8H67.7352L62.2352 48.72V54H60.8352V48.68L55.3552 39.8H56.8952ZM44.3952 72.28C45.2752 72.4267 45.9752 72.8267 46.4952 73.48C47.0285 74.1333 47.2952 74.94 47.2952 75.9C47.2952 76.7 47.1018 77.4 46.7152 78C46.3285 78.6133 45.7885 79.0867 45.0952 79.42C44.4018 79.7667 43.5952 79.94 42.6752 79.94C41.6752 79.94 40.7885 79.7333 40.0152 79.32C39.2552 78.92 38.6818 78.36 38.2952 77.64L39.2352 76.78C39.5152 77.3667 39.9418 77.8333 40.5152 78.18C41.1018 78.5267 41.8218 78.7 42.6752 78.7C43.6618 78.7 44.4418 78.4533 45.0152 77.96C45.6018 77.48 45.8952 76.7867 45.8952 75.88C45.8952 74.9733 45.5885 74.2533 44.9752 73.72C44.3752 73.1733 43.5152 72.9 42.3952 72.9H41.8952V71.74H42.4352C43.4618 71.74 44.2485 71.5067 44.7952 71.04C45.3418 70.56 45.6152 69.94 45.6152 69.18C45.6152 68.38 45.3352 67.7733 44.7752 67.36C44.2285 66.9333 43.5418 66.72 42.7152 66.72C41.9552 66.72 41.2818 66.8933 40.6952 67.24C40.1218 67.5733 39.6885 68.04 39.3952 68.64L38.5152 67.8C38.8485 67.1067 39.4085 66.5467 40.1952 66.12C40.9818 65.6933 41.8618 65.48 42.8352 65.48C43.6618 65.48 44.3885 65.6333 45.0152 65.94C45.6418 66.2333 46.1352 66.6533 46.4952 67.2C46.8552 67.7333 47.0352 68.3533 47.0352 69.06C47.0352 69.86 46.7952 70.5667 46.3152 71.18C45.8485 71.7933 45.2085 72.16 44.3952 72.28ZM59.3588 71.14C59.3588 72.3133 59.1388 73.36 58.6988 74.28C58.2588 75.1867 57.6588 75.9 56.8988 76.42C56.1521 76.94 55.2988 77.2 54.3388 77.2C53.3788 77.2 52.5188 76.94 51.7588 76.42C50.9988 75.9 50.3988 75.1867 49.9588 74.28C49.5321 73.36 49.3188 72.3133 49.3188 71.14C49.3188 69.9667 49.5321 68.9267 49.9588 68.02C50.3988 67.1 50.9988 66.38 51.7588 65.86C52.5188 65.3267 53.3788 65.06 54.3388 65.06C55.2988 65.06 56.1521 65.3267 56.8988 65.86C57.6588 66.38 58.2588 67.1 58.6988 68.02C59.1388 68.9267 59.3588 69.9667 59.3588 71.14ZM57.9788 71.14C57.9788 70.1933 57.8254 69.36 57.5188 68.64C57.2121 67.9067 56.7854 67.34 56.2388 66.94C55.6921 66.54 55.0588 66.34 54.3388 66.34C53.6188 66.34 52.9854 66.54 52.4388 66.94C51.8921 67.34 51.4588 67.9067 51.1388 68.64C50.8321 69.36 50.6788 70.1933 50.6788 71.14C50.6788 72.0867 50.8321 72.92 51.1388 73.64C51.4588 74.36 51.8921 74.92 52.4388 75.32C52.9854 75.72 53.6188 75.92 54.3388 75.92C55.0588 75.92 55.6921 75.72 56.2388 75.32C56.7854 74.92 57.2121 74.36 57.5188 73.64C57.8254 72.92 57.9788 72.0867 57.9788 71.14Z" fill="black"/>
</svg>
