<svg width="96" height="92" viewBox="0 0 96 92" fill="none" xmlns="http://www.w3.org/2000/svg">
<path d="M38.9225 57V45.44L33.7825 54.42H32.9025L27.7425 45.44V57H26.3425V42.8H27.7825L33.3225 52.52L38.9025 42.8H40.3225V57H38.9225ZM48.2816 42.8H49.4616L55.3616 57H53.8816L52.0416 52.56H45.6616L43.8416 57H42.3416L48.2816 42.8ZM51.7216 51.46L48.8616 44.44L45.9616 51.46H51.7216ZM55.8952 42.8L60.5352 50.44L65.2152 42.8H66.7352L61.2352 51.72V57H59.8352V51.68L54.3552 42.8H55.8952ZM38.2159 80C38.2159 79.4 38.2893 78.7933 38.4359 78.18C38.5959 77.5533 38.9093 76.9533 39.3759 76.38C39.8559 75.7933 40.5759 75.2533 41.5359 74.76C41.9226 74.56 42.3226 74.3667 42.7359 74.18C43.1493 73.98 43.5359 73.7667 43.8959 73.54C44.2559 73.3 44.5493 73.0333 44.7759 72.74C45.0026 72.4333 45.1159 72.0733 45.1159 71.66C45.1159 71.3267 45.0159 71.0067 44.8159 70.7C44.6159 70.38 44.3226 70.12 43.9359 69.92C43.5493 69.7067 43.0626 69.6 42.4759 69.6C41.9159 69.6 41.4159 69.7 40.9759 69.9C40.5493 70.1 40.1893 70.3333 39.8959 70.6C39.6159 70.8533 39.4026 71.06 39.2559 71.22L38.3959 70.28C38.4759 70.2 38.6293 70.06 38.8559 69.86C39.0826 69.6467 39.3759 69.4267 39.7359 69.2C40.1093 68.9733 40.5426 68.78 41.0359 68.62C41.5293 68.46 42.0826 68.38 42.6959 68.38C43.5093 68.38 44.2026 68.5267 44.7759 68.82C45.3626 69.1133 45.8093 69.5 46.1159 69.98C46.4226 70.4467 46.5759 70.96 46.5759 71.52C46.5759 72.0667 46.4559 72.54 46.2159 72.94C45.9893 73.3267 45.6893 73.6667 45.3159 73.96C44.9559 74.24 44.5759 74.4867 44.1759 74.7C43.7893 74.9 43.4359 75.0733 43.1159 75.22C42.2759 75.62 41.6159 76.02 41.1359 76.42C40.6559 76.8067 40.3026 77.1933 40.0759 77.58C39.8626 77.9667 39.7159 78.36 39.6359 78.76H46.7959V80H38.2159ZM53.0056 82.98C52.0056 82.98 51.099 82.7267 50.2856 82.22C49.4723 81.7267 48.8656 81.0733 48.4656 80.26L49.3656 79.58C49.739 80.2333 50.2456 80.76 50.8856 81.16C51.539 81.56 52.2523 81.76 53.0256 81.76C53.6923 81.76 54.2856 81.6133 54.8056 81.32C55.339 81.0267 55.759 80.62 56.0656 80.1C56.3856 79.58 56.5456 78.98 56.5456 78.3C56.5456 77.6467 56.3923 77.0733 56.0856 76.58C55.7923 76.0733 55.3856 75.68 54.8656 75.4C54.359 75.12 53.7856 74.98 53.1456 74.98C52.5323 74.98 51.9456 75.12 51.3856 75.4C50.8256 75.6667 50.3723 76.06 50.0256 76.58H48.7656L50.3456 68.58H57.2056V69.84H51.3656L50.3856 74.94C50.7323 74.5667 51.159 74.28 51.6656 74.08C52.1723 73.8667 52.719 73.76 53.3056 73.76C54.1723 73.76 54.9523 73.9533 55.6456 74.34C56.3523 74.7267 56.9123 75.26 57.3256 75.94C57.739 76.62 57.9456 77.4 57.9456 78.28C57.9456 79.2267 57.719 80.0467 57.2656 80.74C56.8256 81.4467 56.2323 81.9933 55.4856 82.38C54.739 82.78 53.9123 82.98 53.0056 82.98Z" fill="black"/>
<path d="M83.6618 7.1875H75.0625V2.875C75.0625 1.28728 73.7234 0 72.0714 0C70.4194 0 69.0804 1.28728 69.0804 2.875V7.1875H27.2054V2.875C27.2054 1.28728 25.8663 0 24.2143 0C22.5623 0 21.2232 1.28728 21.2232 2.875V7.1875H12.6239C5.8205 7.1875 0.285706 12.5075 0.285706 19.0469V80.1406C0.285706 86.68 5.8205 92 12.6239 92H83.6618C90.4652 92 96 86.68 96 80.1406V19.0469C96 12.5075 90.4652 7.1875 83.6618 7.1875ZM12.6239 12.9375H21.2232V15.8125C21.2232 17.4002 22.5623 18.6875 24.2143 18.6875C25.8663 18.6875 27.2054 17.4002 27.2054 15.8125V12.9375H69.0804V15.8125C69.0804 17.4002 70.4194 18.6875 72.0714 18.6875C73.7234 18.6875 75.0625 17.4002 75.0625 15.8125V12.9375H83.6618C87.1666 12.9375 90.0179 15.6781 90.0179 19.0469V25.875H6.26785V19.0469C6.26785 15.6781 9.11909 12.9375 12.6239 12.9375ZM83.6618 86.25H12.6239C9.11909 86.25 6.26785 83.5094 6.26785 80.1406V31.625H90.0179V80.1406C90.0179 83.5094 87.1666 86.25 83.6618 86.25Z" fill="black"/>
</svg>
