<svg width="93" height="95" viewBox="0 0 93 95" fill="none" xmlns="http://www.w3.org/2000/svg">
<path d="M80.8315 7.38352H72.4946V2.95341C72.4946 1.32239 71.1964 0 69.5948 0C67.9932 0 66.695 1.32239 66.695 2.95341V7.38352H26.0981V2.95341C26.0981 1.32239 24.7999 0 23.1983 0C21.5967 0 20.2985 1.32239 20.2985 2.95341V7.38352H11.9616C5.36587 7.38352 0 12.8486 0 19.5663V82.3263C0 89.044 5.36587 94.5091 11.9616 94.5091H80.8315C87.4272 94.5091 92.7931 89.044 92.7931 82.3263V19.5663C92.7931 12.8486 87.4272 7.38352 80.8315 7.38352ZM11.9616 13.2903H20.2985V16.2438C20.2985 17.8748 21.5967 19.1972 23.1983 19.1972C24.7999 19.1972 26.0981 17.8748 26.0981 16.2438V13.2903H66.695V16.2438C66.695 17.8748 67.9932 19.1972 69.5948 19.1972C71.1964 19.1972 72.4946 17.8748 72.4946 16.2438V13.2903H80.8315C84.2293 13.2903 86.9935 16.1057 86.9935 19.5663V26.5807H5.79957V19.5663C5.79957 16.1057 8.56379 13.2903 11.9616 13.2903ZM80.8315 88.6023H11.9616C8.56379 88.6023 5.79957 85.7869 5.79957 82.3263V32.4875H86.9935V82.3263C86.9935 85.7869 84.2293 88.6023 80.8315 88.6023Z" fill="black"/>
<path d="M25.2249 47.38V59H23.8249V44.8H24.9849L34.3049 56.64V44.82H35.7049V59H34.4049L25.2249 47.38ZM44.9941 59.1C43.9941 59.1 43.0875 58.9 42.2741 58.5C41.4608 58.0867 40.7608 57.54 40.1741 56.86C39.5875 56.18 39.1341 55.4133 38.8141 54.56C38.4941 53.6933 38.3341 52.8067 38.3341 51.9C38.3341 50.9533 38.5008 50.0533 38.8341 49.2C39.1675 48.3333 39.6341 47.5667 40.2341 46.9C40.8475 46.22 41.5608 45.6867 42.3741 45.3C43.1875 44.9 44.0675 44.7 45.0141 44.7C46.0008 44.7 46.9008 44.9067 47.7141 45.32C48.5275 45.7333 49.2275 46.2867 49.8141 46.98C50.4141 47.6733 50.8675 48.4467 51.1741 49.3C51.4941 50.1533 51.6541 51.0267 51.6541 51.92C51.6541 52.8667 51.4875 53.7733 51.1541 54.64C50.8208 55.4933 50.3541 56.26 49.7541 56.94C49.1541 57.6067 48.4475 58.1333 47.6341 58.52C46.8208 58.9067 45.9408 59.1 44.9941 59.1ZM39.7341 51.9C39.7341 52.6733 39.8608 53.4133 40.1141 54.12C40.3675 54.8267 40.7275 55.46 41.1941 56.02C41.6608 56.58 42.2141 57.0267 42.8541 57.36C43.5075 57.68 44.2208 57.84 44.9941 57.84C45.8075 57.84 46.5341 57.6733 47.1741 57.34C47.8275 56.9933 48.3808 56.5333 48.8341 55.96C49.3008 55.3867 49.6541 54.7533 49.8941 54.06C50.1341 53.3533 50.2541 52.6333 50.2541 51.9C50.2541 51.1267 50.1275 50.3867 49.8741 49.68C49.6208 48.9733 49.2541 48.34 48.7741 47.78C48.3075 47.22 47.7541 46.78 47.1141 46.46C46.4741 46.14 45.7675 45.98 44.9941 45.98C44.1941 45.98 43.4675 46.1467 42.8141 46.48C42.1741 46.8133 41.6208 47.2667 41.1541 47.84C40.7008 48.4 40.3475 49.0333 40.0941 49.74C39.8541 50.4467 39.7341 51.1667 39.7341 51.9ZM53.6868 44.8L58.7668 57.26L63.8268 44.8H65.2868L59.4068 59H58.1268L52.2268 44.8H53.6868ZM44.5009 80.76V82H37.7209V80.76H40.5609V72.2C40.4142 72.4 40.1475 72.6267 39.7609 72.88C39.3742 73.1333 38.9542 73.3533 38.5009 73.54C38.0475 73.7133 37.6475 73.8 37.3009 73.8V72.48C37.6075 72.48 37.9409 72.3933 38.3009 72.22C38.6742 72.0467 39.0209 71.8467 39.3409 71.62C39.6742 71.38 39.9542 71.16 40.1809 70.96C40.4075 70.76 40.5342 70.6333 40.5609 70.58H41.9609V80.76H44.5009ZM51.7955 77.28C52.6755 77.4267 53.3755 77.8267 53.8955 78.48C54.4289 79.1333 54.6955 79.94 54.6955 80.9C54.6955 81.7 54.5022 82.4 54.1155 83C53.7289 83.6133 53.1889 84.0867 52.4955 84.42C51.8022 84.7667 50.9955 84.94 50.0755 84.94C49.0755 84.94 48.1889 84.7333 47.4155 84.32C46.6555 83.92 46.0822 83.36 45.6955 82.64L46.6355 81.78C46.9155 82.3667 47.3422 82.8333 47.9155 83.18C48.5022 83.5267 49.2222 83.7 50.0755 83.7C51.0622 83.7 51.8422 83.4533 52.4155 82.96C53.0022 82.48 53.2955 81.7867 53.2955 80.88C53.2955 79.9733 52.9889 79.2533 52.3755 78.72C51.7755 78.1733 50.9155 77.9 49.7955 77.9H49.2955V76.74H49.8355C50.8622 76.74 51.6489 76.5067 52.1955 76.04C52.7422 75.56 53.0155 74.94 53.0155 74.18C53.0155 73.38 52.7355 72.7733 52.1755 72.36C51.6289 71.9333 50.9422 71.72 50.1155 71.72C49.3555 71.72 48.6822 71.8933 48.0955 72.24C47.5222 72.5733 47.0889 73.04 46.7955 73.64L45.9155 72.8C46.2489 72.1067 46.8089 71.5467 47.5955 71.12C48.3822 70.6933 49.2622 70.48 50.2355 70.48C51.0622 70.48 51.7889 70.6333 52.4155 70.94C53.0422 71.2333 53.5355 71.6533 53.8955 72.2C54.2555 72.7333 54.4355 73.3533 54.4355 74.06C54.4355 74.86 54.1955 75.5667 53.7155 76.18C53.2489 76.7933 52.6089 77.16 51.7955 77.28Z" fill="black"/>
</svg>
