<svg width="96" height="92" viewBox="0 0 96 92" fill="none" xmlns="http://www.w3.org/2000/svg">
<path d="M83.625 7.1875H75V2.875C75 1.28728 73.6569 0 72 0C70.3431 0 69 1.28728 69 2.875V7.1875H27V2.875C27 1.28728 25.6569 0 24 0C22.3431 0 21 1.28728 21 2.875V7.1875H12.375C5.55131 7.1875 0 12.5075 0 19.0469V80.1406C0 86.68 5.55131 92 12.375 92H83.625C90.4487 92 96 86.68 96 80.1406V19.0469C96 12.5075 90.4487 7.1875 83.625 7.1875ZM12.375 12.9375H21V15.8125C21 17.4002 22.3431 18.6875 24 18.6875C25.6569 18.6875 27 17.4002 27 15.8125V12.9375H69V15.8125C69 17.4002 70.3431 18.6875 72 18.6875C73.6569 18.6875 75 17.4002 75 15.8125V12.9375H83.625C87.1402 12.9375 90 15.6781 90 19.0469V25.875H6V19.0469C6 15.6781 8.85975 12.9375 12.375 12.9375ZM83.625 86.25H12.375C8.85975 86.25 6 83.5094 6 80.1406V31.625H90V80.1406C90 83.5094 87.1402 86.25 83.625 86.25Z" fill="black"/>
<path d="M35.0508 54.1C34.0508 54.1 33.1441 53.9 32.3308 53.5C31.5174 53.0867 30.8174 52.54 30.2308 51.86C29.6441 51.18 29.1908 50.4133 28.8708 49.56C28.5508 48.6933 28.3908 47.8067 28.3908 46.9C28.3908 45.9533 28.5574 45.0533 28.8908 44.2C29.2241 43.3333 29.6908 42.5667 30.2908 41.9C30.9041 41.22 31.6174 40.6867 32.4308 40.3C33.2441 39.9 34.1241 39.7 35.0708 39.7C36.0574 39.7 36.9574 39.9067 37.7708 40.32C38.5841 40.7333 39.2841 41.2867 39.8708 41.98C40.4708 42.6733 40.9241 43.4467 41.2308 44.3C41.5508 45.1533 41.7108 46.0267 41.7108 46.92C41.7108 47.8667 41.5441 48.7733 41.2108 49.64C40.8774 50.4933 40.4108 51.26 39.8108 51.94C39.2108 52.6067 38.5041 53.1333 37.6908 53.52C36.8774 53.9067 35.9974 54.1 35.0508 54.1ZM29.7908 46.9C29.7908 47.6733 29.9174 48.4133 30.1708 49.12C30.4241 49.8267 30.7841 50.46 31.2508 51.02C31.7174 51.58 32.2708 52.0267 32.9108 52.36C33.5641 52.68 34.2774 52.84 35.0508 52.84C35.8641 52.84 36.5908 52.6733 37.2308 52.34C37.8841 51.9933 38.4374 51.5333 38.8908 50.96C39.3574 50.3867 39.7108 49.7533 39.9508 49.06C40.1908 48.3533 40.3108 47.6333 40.3108 46.9C40.3108 46.1267 40.1841 45.3867 39.9308 44.68C39.6774 43.9733 39.3108 43.34 38.8308 42.78C38.3641 42.22 37.8108 41.78 37.1708 41.46C36.5308 41.14 35.8241 40.98 35.0508 40.98C34.2508 40.98 33.5241 41.1467 32.8708 41.48C32.2308 41.8133 31.6774 42.2667 31.2108 42.84C30.7574 43.4 30.4041 44.0333 30.1508 44.74C29.9108 45.4467 29.7908 46.1667 29.7908 46.9ZM43.4103 46.8C43.4103 45.9467 43.557 45.1 43.8503 44.26C44.157 43.42 44.597 42.66 45.1703 41.98C45.7436 41.2867 46.4503 40.74 47.2903 40.34C48.1303 39.9267 49.0836 39.72 50.1503 39.72C51.4036 39.72 52.4836 40.0133 53.3903 40.6C54.297 41.1733 54.9636 41.9133 55.3903 42.82L54.2903 43.5C53.9836 42.8733 53.597 42.38 53.1303 42.02C52.6636 41.6467 52.1636 41.38 51.6303 41.22C51.1103 41.06 50.5903 40.98 50.0703 40.98C49.217 40.98 48.4636 41.1533 47.8103 41.5C47.157 41.8333 46.6036 42.2867 46.1503 42.86C45.7103 43.4333 45.377 44.0667 45.1503 44.76C44.9236 45.4533 44.8103 46.16 44.8103 46.88C44.8103 47.6667 44.9436 48.42 45.2103 49.14C45.477 49.8467 45.8503 50.48 46.3303 51.04C46.8103 51.6 47.3703 52.0467 48.0103 52.38C48.6636 52.7 49.3703 52.86 50.1303 52.86C50.6636 52.86 51.2103 52.7667 51.7703 52.58C52.3303 52.3933 52.8503 52.1067 53.3303 51.72C53.8103 51.3333 54.2036 50.8333 54.5103 50.22L55.6703 50.82C55.3636 51.5267 54.9036 52.1267 54.2903 52.62C53.6903 53.1133 53.0103 53.4867 52.2503 53.74C51.5036 53.9933 50.7703 54.12 50.0503 54.12C49.077 54.12 48.1836 53.9133 47.3703 53.5C46.557 53.0733 45.8503 52.5133 45.2503 51.82C44.6636 51.1133 44.2103 50.3267 43.8903 49.46C43.5703 48.58 43.4103 47.6933 43.4103 46.8ZM68.1022 41.04H63.0422V54H61.6422V41.04H56.5822V39.8H68.1022V41.04ZM46.5009 75.76V77H39.7209V75.76H42.5609V67.2C42.4142 67.4 42.1475 67.6267 41.7609 67.88C41.3742 68.1333 40.9542 68.3533 40.5009 68.54C40.0475 68.7133 39.6475 68.8 39.3009 68.8V67.48C39.6075 67.48 39.9409 67.3933 40.3009 67.22C40.6742 67.0467 41.0209 66.8467 41.3409 66.62C41.6742 66.38 41.9542 66.16 42.1809 65.96C42.4075 65.76 42.5342 65.6333 42.5609 65.58H43.9609V75.76H46.5009ZM53.7955 72.28C54.6755 72.4267 55.3755 72.8267 55.8955 73.48C56.4289 74.1333 56.6955 74.94 56.6955 75.9C56.6955 76.7 56.5022 77.4 56.1155 78C55.7289 78.6133 55.1889 79.0867 54.4955 79.42C53.8022 79.7667 52.9955 79.94 52.0755 79.94C51.0755 79.94 50.1889 79.7333 49.4155 79.32C48.6555 78.92 48.0822 78.36 47.6955 77.64L48.6355 76.78C48.9155 77.3667 49.3422 77.8333 49.9155 78.18C50.5022 78.5267 51.2222 78.7 52.0755 78.7C53.0622 78.7 53.8422 78.4533 54.4155 77.96C55.0022 77.48 55.2955 76.7867 55.2955 75.88C55.2955 74.9733 54.9889 74.2533 54.3755 73.72C53.7755 73.1733 52.9155 72.9 51.7955 72.9H51.2955V71.74H51.8355C52.8622 71.74 53.6489 71.5067 54.1955 71.04C54.7422 70.56 55.0155 69.94 55.0155 69.18C55.0155 68.38 54.7355 67.7733 54.1755 67.36C53.6289 66.9333 52.9422 66.72 52.1155 66.72C51.3555 66.72 50.6822 66.8933 50.0955 67.24C49.5222 67.5733 49.0889 68.04 48.7955 68.64L47.9155 67.8C48.2489 67.1067 48.8089 66.5467 49.5955 66.12C50.3822 65.6933 51.2622 65.48 52.2355 65.48C53.0622 65.48 53.7889 65.6333 54.4155 65.94C55.0422 66.2333 55.5355 66.6533 55.8955 67.2C56.2555 67.7333 56.4355 68.3533 56.4355 69.06C56.4355 69.86 56.1955 70.5667 55.7155 71.18C55.2489 71.7933 54.6089 72.16 53.7955 72.28Z" fill="black"/>
</svg>
