<svg width="97" height="92" viewBox="0 0 97 92" fill="none" xmlns="http://www.w3.org/2000/svg">
<path d="M27.9905 53.22C28.2705 53.42 28.6372 53.5933 29.0905 53.74C29.5572 53.8867 30.0905 53.96 30.6905 53.96C31.6105 53.96 32.3039 53.7533 32.7705 53.34C33.2372 52.9133 33.5439 52.28 33.6905 51.44C33.8505 50.6 33.9305 49.5533 33.9305 48.3V40.8H35.3305V48.02C35.3305 49.0867 35.2772 50.06 35.1705 50.94C35.0639 51.82 34.8572 52.58 34.5505 53.22C34.2439 53.86 33.7839 54.3533 33.1705 54.7C32.5572 55.0467 31.7439 55.22 30.7305 55.22C30.0772 55.22 29.4972 55.1467 28.9905 55C28.4839 54.8533 28.0172 54.6333 27.5905 54.34L27.9905 53.22ZM42.807 40.8H43.987L49.887 55H48.407L46.567 50.56H40.187L38.367 55H36.867L42.807 40.8ZM46.247 49.46L43.387 42.44L40.487 49.46H46.247ZM53.3226 43.38V55H51.9226V40.8H53.0826L62.4026 52.64V40.82H63.8026V55H62.5026L53.3226 43.38ZM52.8427 76.76V78H46.0627V76.76H48.9027V68.2C48.756 68.4 48.4893 68.6267 48.1027 68.88C47.716 69.1333 47.296 69.3533 46.8427 69.54C46.3893 69.7133 45.9893 69.8 45.6427 69.8V68.48C45.9493 68.48 46.2827 68.3933 46.6427 68.22C47.016 68.0467 47.3627 67.8467 47.6827 67.62C48.016 67.38 48.296 67.16 48.5227 66.96C48.7493 66.76 48.876 66.6333 48.9027 66.58H50.3027V76.76H52.8427Z" fill="black"/>
<path d="M84.4961 7.1875H75.7812V2.875C75.7812 1.28728 74.4242 0 72.75 0C71.0758 0 69.7188 1.28728 69.7188 2.875V7.1875H27.2812V2.875C27.2812 1.28728 25.9242 0 24.25 0C22.5758 0 21.2188 1.28728 21.2188 2.875V7.1875H12.5039C5.60914 7.1875 0 12.5075 0 19.0469V80.1406C0 86.68 5.60914 92 12.5039 92H84.4961C91.3909 92 97 86.68 97 80.1406V19.0469C97 12.5075 91.3909 7.1875 84.4961 7.1875ZM12.5039 12.9375H21.2188V15.8125C21.2188 17.4002 22.5758 18.6875 24.25 18.6875C25.9242 18.6875 27.2812 17.4002 27.2812 15.8125V12.9375H69.7188V15.8125C69.7188 17.4002 71.0758 18.6875 72.75 18.6875C74.4242 18.6875 75.7812 17.4002 75.7812 15.8125V12.9375H84.4961C88.048 12.9375 90.9375 15.6781 90.9375 19.0469V25.875H6.0625V19.0469C6.0625 15.6781 8.95204 12.9375 12.5039 12.9375ZM84.4961 86.25H12.5039C8.95204 86.25 6.0625 83.5094 6.0625 80.1406V31.625H90.9375V80.1406C90.9375 83.5094 88.048 86.25 84.4961 86.25Z" fill="black"/>
</svg>
