<svg width="80" height="39" viewBox="0 0 80 39" fill="none" xmlns="http://www.w3.org/2000/svg">
<g filter="url(#filter0_d)">
<rect x="4.91833" y="0.283203" width="70.4348" height="30.3" rx="15.15" fill="#4E7099" fill-opacity="0.9"/>
</g>
<path d="M12.4999 14.9632C12.4999 14.4432 12.5919 13.9312 12.7759 13.4272C12.9679 12.9232 13.2439 12.4672 13.6039 12.0592C13.9639 11.6512 14.4039 11.3272 14.9239 11.0872C15.4439 10.8392 16.0359 10.7152 16.6999 10.7152C17.4759 10.7152 18.1519 10.8872 18.7279 11.2312C19.3039 11.5752 19.7319 12.0232 20.0119 12.5752L18.7399 13.4512C18.5959 13.1312 18.4079 12.8792 18.1759 12.6952C17.9439 12.5112 17.6919 12.3792 17.4199 12.2992C17.1559 12.2192 16.8999 12.1792 16.6519 12.1792C16.2359 12.1792 15.8719 12.2632 15.5599 12.4312C15.2559 12.5992 14.9999 12.8192 14.7919 13.0912C14.5839 13.3632 14.4279 13.6672 14.3239 14.0032C14.2279 14.3392 14.1799 14.6752 14.1799 15.0112C14.1799 15.5152 14.2839 15.9872 14.4919 16.4272C14.6999 16.8592 14.9919 17.2112 15.3679 17.4832C15.7439 17.7552 16.1799 17.8912 16.6759 17.8912C16.9319 17.8912 17.1959 17.8472 17.4679 17.7592C17.7479 17.6712 18.0039 17.5312 18.2359 17.3392C18.4679 17.1472 18.6479 16.8992 18.7759 16.5952L20.1319 17.3752C19.9559 17.7992 19.6799 18.1592 19.3039 18.4552C18.9279 18.7432 18.5039 18.9672 18.0319 19.1272C17.5599 19.2792 17.0919 19.3552 16.6279 19.3552C16.0199 19.3552 15.4639 19.2312 14.9599 18.9832C14.4639 18.7272 14.0319 18.3912 13.6639 17.9752C13.2959 17.5512 13.0079 17.0792 12.7999 16.5592C12.5999 16.0312 12.4999 15.4992 12.4999 14.9632ZM24.773 19.3432C24.149 19.3432 23.581 19.2232 23.069 18.9832C22.565 18.7432 22.129 18.4192 21.761 18.0112C21.401 17.5952 21.121 17.1312 20.921 16.6192C20.721 16.0992 20.621 15.5672 20.621 15.0232C20.621 14.4552 20.725 13.9152 20.933 13.4032C21.141 12.8832 21.433 12.4232 21.809 12.0232C22.185 11.6152 22.625 11.2952 23.129 11.0632C23.641 10.8232 24.201 10.7032 24.809 10.7032C25.425 10.7032 25.985 10.8272 26.489 11.0752C27.001 11.3232 27.437 11.6552 27.797 12.0712C28.165 12.4872 28.445 12.9552 28.637 13.4752C28.837 13.9872 28.937 14.5112 28.937 15.0472C28.937 15.6072 28.833 16.1472 28.625 16.6672C28.417 17.1792 28.125 17.6392 27.749 18.0472C27.381 18.4472 26.941 18.7632 26.429 18.9952C25.925 19.2272 25.373 19.3432 24.773 19.3432ZM22.301 15.0232C22.301 15.5192 22.397 15.9832 22.589 16.4152C22.789 16.8472 23.073 17.1992 23.441 17.4712C23.817 17.7432 24.265 17.8792 24.785 17.8792C25.321 17.8792 25.773 17.7392 26.141 17.4592C26.509 17.1792 26.789 16.8192 26.981 16.3792C27.173 15.9392 27.269 15.4872 27.269 15.0232C27.269 14.5272 27.169 14.0632 26.969 13.6312C26.769 13.1992 26.481 12.8512 26.105 12.5872C25.737 12.3152 25.297 12.1792 24.785 12.1792C24.249 12.1792 23.797 12.3192 23.429 12.5992C23.061 12.8792 22.781 13.2392 22.589 13.6792C22.397 14.1112 22.301 14.5592 22.301 15.0232ZM31.8633 13.8112V19.2832H30.2073V10.7632H31.5273L35.9313 16.3792V10.7752H37.5873V19.2832H36.2073L31.8633 13.8112ZM45.7317 12.2152H43.0077V19.2832H41.3637V12.2152H38.6397V10.7632H45.7317V12.2152ZM48.3085 10.7632H49.9885L53.1205 19.2832H51.4165L50.6245 17.1592H47.6485L46.8685 19.2832H45.1645L48.3085 10.7632ZM50.3245 15.9952L49.1485 12.4792L47.9245 15.9952H50.3245ZM53.2109 14.9632C53.2109 14.4432 53.3029 13.9312 53.4869 13.4272C53.6789 12.9232 53.9549 12.4672 54.3149 12.0592C54.6749 11.6512 55.1149 11.3272 55.6349 11.0872C56.1549 10.8392 56.7469 10.7152 57.4109 10.7152C58.1869 10.7152 58.8629 10.8872 59.4389 11.2312C60.0149 11.5752 60.4429 12.0232 60.7229 12.5752L59.4509 13.4512C59.3069 13.1312 59.1189 12.8792 58.8869 12.6952C58.6549 12.5112 58.4029 12.3792 58.1309 12.2992C57.8669 12.2192 57.6109 12.1792 57.3629 12.1792C56.9469 12.1792 56.5829 12.2632 56.2709 12.4312C55.9669 12.5992 55.7109 12.8192 55.5029 13.0912C55.2949 13.3632 55.1389 13.6672 55.0349 14.0032C54.9389 14.3392 54.8909 14.6752 54.8909 15.0112C54.8909 15.5152 54.9949 15.9872 55.2029 16.4272C55.4109 16.8592 55.7029 17.2112 56.0789 17.4832C56.4549 17.7552 56.8909 17.8912 57.3869 17.8912C57.6429 17.8912 57.9069 17.8472 58.1789 17.7592C58.4589 17.6712 58.7149 17.5312 58.9469 17.3392C59.1789 17.1472 59.3589 16.8992 59.4869 16.5952L60.8429 17.3752C60.6669 17.7992 60.3909 18.1592 60.0149 18.4552C59.6389 18.7432 59.2149 18.9672 58.7429 19.1272C58.2709 19.2792 57.8029 19.3552 57.3389 19.3552C56.7309 19.3552 56.1749 19.2312 55.6709 18.9832C55.1749 18.7272 54.7429 18.3912 54.3749 17.9752C54.0069 17.5512 53.7189 17.0792 53.5109 16.5592C53.3109 16.0312 53.2109 15.4992 53.2109 14.9632ZM68.3254 12.2152H65.6014V19.2832H63.9574V12.2152H61.2334V10.7632H68.3254V12.2152Z" fill="white"/>
<defs>
<filter id="filter0_d" x="0.918335" y="0.283203" width="78.4348" height="38.3" filterUnits="userSpaceOnUse" color-interpolation-filters="sRGB">
<feFlood flood-opacity="0" result="BackgroundImageFix"/>
<feColorMatrix in="SourceAlpha" type="matrix" values="0 0 0 0 0 0 0 0 0 0 0 0 0 0 0 0 0 0 127 0"/>
<feOffset dy="4"/>
<feGaussianBlur stdDeviation="2"/>
<feColorMatrix type="matrix" values="0 0 0 0 0 0 0 0 0 0 0 0 0 0 0 0 0 0 0.25 0"/>
<feBlend mode="normal" in2="BackgroundImageFix" result="effect1_dropShadow"/>
<feBlend mode="normal" in="SourceGraphic" in2="effect1_dropShadow" result="shape"/>
</filter>
</defs>
</svg>
